# xmcd CD database file
#
# Track frame offsets:
#	150
#	12795
#	25125
#	35175
#	46585
#	54760
#	66385
#	78075
#	92035
#	105835
#	122335
#	134925
#	151987
#	164850
#	177825
#	192160
#	216235
#	235317
#
# Disc length: 3416 seconds
#
# Revision: 2
# Processed by: cddbd v1.5.2PL0 Copyright (c) Steve Scherf et al.
# Submitted via: CDex 1.72
#
DISCID=eb0d5612
DTITLE=Cash, Johnny (USA-00-Hello. I'm Johnny Cash-Cty) - Hello, I'm Johnny Cash - 18 Cash Classics
DYEAR=2000
DGENRE=Country
TTITLE0=Fulsom Prison Blues
TTITLE1=I Walk The Line
TTITLE2=Get Rhythm
TTITLE3=Big River
TTITLE4=Guess Things Happen That Way
TTITLE5=I Still Miss Someone
TTITLE6=Ring Of Fire
TTITLE7=The Long Black Veil
TTITLE8=The Folk Singer
TTITLE9=Girl Of The North Country
TTITLE10=Cocaine Blues
TTITLE11=A Boy Named Sue
TTITLE12=Wanted Man
TTITLE13=Man In Black
TTITLE14=No Expectations
TTITLE15=Highway Patrolman
TTITLE16=In Your Mind
TTITLE17=The Wanderer
EXTD=YEAR: 2000
EXTT0=
EXTT1=
EXTT2=
EXTT3=
EXTT4=
EXTT5=
EXTT6=
EXTT7=
EXTT8=
EXTT9=
EXTT10=
EXTT11=
EXTT12=
EXTT13=
EXTT14=
EXTT15=
EXTT16=
EXTT17=
PLAYORDER=
